<svg aria-hidden="true" style="position: absolute; width: 0; height: 0; overflow: hidden;" version="1.1" xmlns="http://www.w3.org/2000/svg" xmlns:xlink="http://www.w3.org/1999/xlink">
<defs>
<symbol id="address-book" viewBox="0 0 32 32">
<path d="M6 0v32h24v-32h-24zM18 8.010c2.203 0 3.99 1.786 3.99 3.99s-1.786 3.99-3.99 3.99-3.99-1.786-3.99-3.99 1.786-3.99 3.99-3.99v0zM24 24h-12v-2c0-2.209 1.791-4 4-4v0h4c2.209 0 4 1.791 4 4v2z"></path>
<path d="M2 2h3v6h-3v-6z"></path>
<path d="M2 10h3v6h-3v-6z"></path>
<path d="M2 18h3v6h-3v-6z"></path>
<path d="M2 26h3v6h-3v-6z"></path>
</symbol>
<symbol id="home" viewBox="0 0 32 32">
<path d="M32 18.451l-16-12.42-16 12.42v-5.064l16-12.42 16 12.42zM28 18v12h-8v-8h-8v8h-8v-12l12-9z"></path>
</symbol>

<symbol id="abstracts" viewBox="0 0 25 32">
<path fill="#2864ff" style="fill: var(--color1, #2864ff)" d="M5.598 26.626c-0.124 0-0.225-0.101-0.225-0.225s0.101-0.225 0.225-0.225c0.124 0 0.225 0.101 0.225 0.225s-0.101 0.225-0.225 0.225zM5.823 27.745c0-0.124-0.101-0.225-0.225-0.225s-0.225 0.101-0.225 0.225c0 0.124 0.101 0.225 0.225 0.225s0.225-0.1 0.225-0.225zM5.823 29.088c0-0.124-0.101-0.225-0.225-0.225s-0.225 0.101-0.225 0.225c0 0.124 0.101 0.225 0.225 0.225s0.225-0.1 0.225-0.225zM5.823 30.432c0-0.124-0.101-0.225-0.225-0.225s-0.225 0.101-0.225 0.225c0 0.124 0.101 0.225 0.225 0.225s0.225-0.101 0.225-0.225zM5.823 31.775c0-0.124-0.101-0.225-0.225-0.225s-0.225 0.101-0.225 0.225c0 0.124 0.101 0.225 0.225 0.225s0.225-0.101 0.225-0.225zM4.48 26.401c0-0.124-0.101-0.225-0.225-0.225s-0.225 0.101-0.225 0.225c0 0.124 0.101 0.225 0.225 0.225s0.225-0.1 0.225-0.225zM4.48 27.745c0-0.124-0.101-0.225-0.225-0.225s-0.225 0.101-0.225 0.225c0 0.124 0.101 0.225 0.225 0.225s0.225-0.1 0.225-0.225zM4.48 29.088c0-0.124-0.101-0.225-0.225-0.225s-0.225 0.101-0.225 0.225c0 0.124 0.101 0.225 0.225 0.225s0.225-0.1 0.225-0.225zM4.48 30.432c0-0.124-0.101-0.225-0.225-0.225s-0.225 0.101-0.225 0.225c0 0.124 0.101 0.225 0.225 0.225s0.225-0.101 0.225-0.225zM4.48 31.775c0-0.124-0.101-0.225-0.225-0.225s-0.225 0.101-0.225 0.225c0 0.124 0.101 0.225 0.225 0.225s0.225-0.101 0.225-0.225zM3.136 26.401c0-0.124-0.101-0.225-0.225-0.225s-0.225 0.101-0.225 0.225c0 0.124 0.101 0.225 0.225 0.225s0.225-0.1 0.225-0.225zM3.136 27.745c0-0.124-0.101-0.225-0.225-0.225s-0.225 0.101-0.225 0.225c0 0.124 0.101 0.225 0.225 0.225s0.225-0.1 0.225-0.225zM3.136 29.088c0-0.124-0.101-0.225-0.225-0.225s-0.225 0.101-0.225 0.225c0 0.124 0.101 0.225 0.225 0.225s0.225-0.1 0.225-0.225zM3.136 30.432c0-0.124-0.101-0.225-0.225-0.225s-0.225 0.101-0.225 0.225c0 0.124 0.101 0.225 0.225 0.225s0.225-0.101 0.225-0.225zM3.136 31.775c0-0.124-0.101-0.225-0.225-0.225s-0.225 0.101-0.225 0.225c0 0.124 0.101 0.225 0.225 0.225s0.225-0.101 0.225-0.225zM1.792 26.401c0-0.124-0.101-0.225-0.225-0.225s-0.225 0.101-0.225 0.225c0 0.124 0.101 0.225 0.225 0.225s0.225-0.1 0.225-0.225zM1.792 27.745c0-0.124-0.101-0.225-0.225-0.225s-0.225 0.101-0.225 0.225c0 0.124 0.101 0.225 0.225 0.225s0.225-0.1 0.225-0.225zM1.792 29.088c0-0.124-0.101-0.225-0.225-0.225s-0.225 0.101-0.225 0.225c0 0.124 0.101 0.225 0.225 0.225s0.225-0.1 0.225-0.225zM1.792 30.432c0-0.124-0.101-0.225-0.225-0.225s-0.225 0.101-0.225 0.225c0 0.124 0.101 0.225 0.225 0.225s0.225-0.101 0.225-0.225zM1.792 31.775c0-0.124-0.101-0.225-0.225-0.225s-0.225 0.101-0.225 0.225c0 0.124 0.101 0.225 0.225 0.225s0.225-0.101 0.225-0.225zM0.449 26.401c0-0.124-0.101-0.225-0.225-0.225s-0.225 0.101-0.225 0.225c0 0.124 0.101 0.225 0.225 0.225s0.225-0.1 0.225-0.225zM0.449 27.745c0-0.124-0.101-0.225-0.225-0.225s-0.225 0.101-0.225 0.225c0 0.124 0.101 0.225 0.225 0.225s0.225-0.1 0.225-0.225zM0.449 29.088c0-0.124-0.101-0.225-0.225-0.225s-0.225 0.101-0.225 0.225c0 0.124 0.101 0.225 0.225 0.225s0.225-0.1 0.225-0.225zM0.449 30.432c0-0.124-0.101-0.225-0.225-0.225s-0.225 0.101-0.225 0.225c0 0.124 0.101 0.225 0.225 0.225s0.225-0.101 0.225-0.225zM0.449 31.775c0-0.124-0.101-0.225-0.225-0.225s-0.225 0.101-0.225 0.225c0 0.124 0.101 0.225 0.225 0.225s0.225-0.101 0.225-0.225z"></path>
<path fill="#ffda7e" style="fill: var(--color2, #ffda7e)" d="M16.627 11.092l-0.068-0.052c0.91-1.195 1.392-2.624 1.392-4.131 0-2.335-1.175-4.482-3.142-5.745l0.047-0.072c1.992 1.278 3.181 3.454 3.181 5.818 0 1.525-0.488 2.972-1.41 4.183z"></path>
<path fill="#ffda7e" style="fill: var(--color2, #ffda7e)" d="M11.129 13.817c-3.809 0-6.909-3.099-6.909-6.909s3.099-6.909 6.909-6.909v0.086c-3.762 0-6.822 3.061-6.822 6.822s3.061 6.822 6.822 6.822c1.137 0 2.262-0.285 3.254-0.824l0.041 0.076c-1.005 0.548-2.145 0.836-3.295 0.836z"></path>
<path fill="#ffda7e" style="fill: var(--color2, #ffda7e)" d="M7.86 12.227c-1.861-1.146-2.972-3.135-2.972-5.318h0.173c0 2.123 1.080 4.056 2.89 5.171l-0.091 0.147z"></path>
<path fill="#ffda7e" style="fill: var(--color2, #ffda7e)" d="M11.129 13.151c-0.684 0-1.357-0.11-1.999-0.327l0.056-0.163c0.625 0.211 1.278 0.318 1.944 0.318 3.126 0 5.722-2.342 6.037-5.448l0.172 0.018c-0.325 3.193-2.995 5.602-6.21 5.602z"></path>
<path fill="#ffda7e" style="fill: var(--color2, #ffda7e)" d="M17.12 5.939c-0.226-1.408-0.949-2.698-2.037-3.633-1.099-0.945-2.504-1.465-3.954-1.465-1.171 0-2.308 0.334-3.288 0.967-1.142 0.737-2.013 1.848-2.453 3.128l-0.163-0.056c0.452-1.316 1.348-2.459 2.522-3.217 1.008-0.65 2.177-0.994 3.381-0.994 1.492 0 2.937 0.535 4.067 1.507 1.118 0.961 1.862 2.289 2.095 3.737l-0.17 0.027z"></path>
<path fill="#ffda7e" style="fill: var(--color2, #ffda7e)" d="M11.129 11.417c-2.486 0-4.508-2.022-4.508-4.508 0-1.006 0.324-1.958 0.937-2.752l0.137 0.105c-0.589 0.764-0.901 1.678-0.901 2.646 0 2.39 1.945 4.335 4.335 4.335 0.424 0 0.844-0.061 1.245-0.182l0.050 0.166c-0.419 0.126-0.855 0.189-1.295 0.189z"></path>
<path fill="#ffda7e" style="fill: var(--color2, #ffda7e)" d="M14.174 10.233l-0.117-0.127c0.894-0.82 1.407-1.984 1.407-3.197 0-0.853-0.248-1.679-0.716-2.389l0.144-0.095c0.488 0.737 0.745 1.596 0.745 2.484-0.001 1.26-0.534 2.471-1.463 3.323z"></path>
<path fill="#ffda7e" style="fill: var(--color2, #ffda7e)" d="M13.826 3.515c-0.774-0.616-1.707-0.941-2.697-0.941-0.869 0-1.707 0.256-2.424 0.741l-0.097-0.143c0.745-0.504 1.617-0.77 2.521-0.77 1.030 0 2 0.338 2.805 0.979l-0.108 0.134z"></path>
<path fill="#ffda7e" style="fill: var(--color2, #ffda7e)" d="M11.129 10.642c-0.607 0-1.21-0.149-1.743-0.431l0.040-0.076c0.521 0.275 1.109 0.421 1.702 0.421 1.637 0 3.082-1.1 3.516-2.677l0.083 0.023c-0.443 1.613-1.923 2.739-3.598 2.739z"></path>
<path fill="#ffda7e" style="fill: var(--color2, #ffda7e)" d="M8.489 9.55c-0.705-0.705-1.094-1.643-1.094-2.64 0-2.058 1.674-3.734 3.734-3.734s3.734 1.675 3.734 3.734h-0.086c0-2.011-1.636-3.647-3.647-3.647s-3.647 1.636-3.647 3.647c0 0.974 0.379 1.89 1.069 2.579l-0.063 0.061z"></path>
<path fill="#ffda7e" style="fill: var(--color2, #ffda7e)" d="M11.129 9.231c-1.281 0-2.323-1.042-2.323-2.322s1.042-2.323 2.323-2.323v0.173c-1.185 0-2.149 0.964-2.149 2.149s0.964 2.149 2.149 2.149c1.185 0 2.149-0.964 2.149-2.149h0.173c-0.001 1.281-1.043 2.322-2.322 2.322z"></path>
<path fill="#ffda7e" style="fill: var(--color2, #ffda7e)" d="M11.129 8.063c-0.637 0-1.154-0.518-1.154-1.154h0.086c0 0.588 0.479 1.067 1.067 1.067s1.067-0.479 1.067-1.067c0-0.588-0.479-1.067-1.067-1.067-0.327 0-0.631 0.147-0.836 0.402l-0.068-0.054c0.221-0.277 0.55-0.436 0.903-0.436 0.637 0 1.154 0.518 1.154 1.154s-0.518 1.154-1.154 1.154z"></path>
<path fill="#a9c1ff" style="fill: var(--color3, #a9c1ff)" d="M18.345 17.164l1.277-1.277c-0.227 0.13-0.437 0.285-0.628 0.46l-0.189 0.189c-0.176 0.191-0.331 0.401-0.46 0.628z"></path>
<path fill="#a9c1ff" style="fill: var(--color3, #a9c1ff)" d="M17.964 18.179l2.673-2.673c-0.074 0.015-0.146 0.032-0.219 0.052l-2.402 2.402c-0.020 0.073-0.037 0.146-0.052 0.219z"></path>
<path fill="#a9c1ff" style="fill: var(--color3, #a9c1ff)" d="M17.896 18.858c0 0.007 0 0.015 0 0.022l3.441-3.441c-0.007 0-0.015 0-0.022 0-0.049 0-0.099 0.002-0.148 0.003l-3.268 3.268c-0.002 0.049-0.003 0.099-0.003 0.148z"></path>
<path fill="#a9c1ff" style="fill: var(--color3, #a9c1ff)" d="M17.95 19.461l3.969-3.969c-0.048-0.008-0.096-0.016-0.144-0.022l-3.847 3.847c0.006 0.048 0.014 0.096 0.022 0.144z"></path>
<path fill="#a9c1ff" style="fill: var(--color3, #a9c1ff)" d="M18.079 19.965l4.343-4.343c-0.042-0.015-0.084-0.028-0.127-0.040l-4.256 4.256c0.012 0.042 0.026 0.085 0.040 0.126z"></path>
<path fill="#a9c1ff" style="fill: var(--color3, #a9c1ff)" d="M18.268 20.41l4.6-4.6c-0.037-0.019-0.075-0.037-0.113-0.055l-4.542 4.542c0.018 0.039 0.035 0.076 0.055 0.113z"></path>
<path fill="#a9c1ff" style="fill: var(--color3, #a9c1ff)" d="M18.506 20.806l4.758-4.758c-0.033-0.023-0.066-0.045-0.1-0.067l-4.725 4.725c0.022 0.035 0.044 0.068 0.067 0.1z"></path>
<path fill="#a9c1ff" style="fill: var(--color3, #a9c1ff)" d="M18.786 21.159l4.83-4.83c-0.029-0.026-0.059-0.052-0.089-0.078l-4.819 4.819c0.025 0.030 0.051 0.059 0.078 0.089z"></path>
<path fill="#a9c1ff" style="fill: var(--color3, #a9c1ff)" d="M19.109 21.47l4.819-4.819c-0.025-0.030-0.052-0.060-0.078-0.089l-4.83 4.83c0.030 0.027 0.059 0.052 0.089 0.078z"></path>
<path fill="#a9c1ff" style="fill: var(--color3, #a9c1ff)" d="M19.473 21.74l4.724-4.724c-0.022-0.034-0.044-0.067-0.067-0.1l-4.757 4.757c0.033 0.022 0.066 0.045 0.1 0.067z"></path>
<path fill="#a9c1ff" style="fill: var(--color3, #a9c1ff)" d="M19.883 21.963l4.538-4.538c-0.018-0.038-0.035-0.076-0.055-0.113l-4.596 4.596c0.038 0.018 0.076 0.037 0.113 0.054z"></path>
<path fill="#a9c1ff" style="fill: var(--color3, #a9c1ff)" d="M20.343 22.137l4.252-4.252c-0.012-0.042-0.026-0.085-0.040-0.126l-4.338 4.338c0.041 0.015 0.083 0.028 0.126 0.040z"></path>
<path fill="#a9c1ff" style="fill: var(--color3, #a9c1ff)" d="M20.865 22.248l3.84-3.84c-0.006-0.049-0.014-0.097-0.022-0.145l-3.963 3.963c0.049 0.009 0.096 0.016 0.145 0.022z"></path>
<path fill="#a9c1ff" style="fill: var(--color3, #a9c1ff)" d="M21.316 22.278c0.053 0 0.106-0.002 0.157-0.004l3.258-3.258c0.002-0.052 0.004-0.105 0.004-0.157 0-0.005 0-0.008 0-0.013l-3.432 3.432c0.005 0 0.009 0 0.013 0z"></path>
<path fill="#a9c1ff" style="fill: var(--color3, #a9c1ff)" d="M22.226 22.155l2.387-2.387c0.020-0.073 0.038-0.146 0.053-0.22l-2.659 2.659c0.074-0.015 0.147-0.034 0.22-0.053z"></path>
<path fill="#a9c1ff" style="fill: var(--color3, #a9c1ff)" d="M24.274 20.574l-1.244 1.244c0.515-0.3 0.945-0.729 1.244-1.244z"></path>
</symbol>
<symbol id="phone" viewBox="0 0 32 32">
<path d="M22 20c-2 2-2 4-4 4s-4-2-6-4-4-4-4-6 2-2 4-4-4-8-6-8-6 6-6 6c0 4 4.109 12.109 8 16s12 8 16 8c0 0 6-4 6-6s-6-8-8-6z"></path>
</symbol>
</defs>
</svg>
